<svg width="613" height="482" viewBox="0 0 613 482" fill="none" xmlns="http://www.w3.org/2000/svg">
<path d="M585.466 92.214C564.408 69.829 548.106 43.107 522.937 24.839C483.401 -3.91496 426.502 -6.71896 380.275 11.345C334.047 29.408 298.035 65.819 274.299 107.048C261.813 128.74 252.006 152.402 233.711 170.128C218.245 185.104 197.917 194.659 178.643 205.066C147.569 221.799 117.643 242.018 97.5326 269.761C77.4246 297.504 68.434 333.941 81.2884 365.207C89.9567 386.304 107.417 403.09 125.304 418.288C146.354 436.157 168.978 452.889 195.088 463.536C227.776 476.782 264.063 479.63 299.648 480.978C362.734 483.358 425.92 481.579 488.738 475.655C540.178 470.811 593.175 462.542 636.213 435.775C696.502 398.291 727.586 329.612 734.584 262.265C737.432 235.329 736.711 207.337 725.583 182.345C698.971 122.565 627.165 136.547 585.465 92.214H585.466Z" fill="#EFF1F7"/>
<path d="M179.047 202.334C179.047 202.334 162.379 199.387 157.71 211.003C153.041 222.619 157.71 262.736 157.71 262.736L219.896 307L179.047 202.334Z" fill="#3F3D56"/>
<path d="M257.251 379.727L232.595 386.735C229.013 387.745 225.255 385.783 224.189 382.349C223.138 378.911 225.18 375.303 228.757 374.28L253.38 367.266C256.959 366.256 260.717 368.213 261.786 371.645C262.848 375.078 260.822 378.69 257.251 379.727V379.727Z" fill="#2BD0D0"/>
<path d="M256.044 406C262.144 406 267.089 401.075 267.089 395C267.089 388.925 262.144 384 256.044 384C249.944 384 244.999 388.925 244.999 395C244.999 401.075 249.944 406 256.044 406Z" fill="#25233A"/>
<path d="M254.538 403C257.588 403 260.06 400.538 260.06 397.5C260.06 394.462 257.588 392 254.538 392C251.488 392 249.015 394.462 249.015 397.5C249.015 400.538 251.488 403 254.538 403Z" fill="#3F3D56"/>
<path d="M210.859 395C216.959 395 221.904 390.075 221.904 384C221.904 377.925 216.959 373 210.859 373C204.759 373 199.814 377.925 199.814 384C199.814 390.075 204.759 395 210.859 395Z" fill="#25233A"/>
<path d="M214.876 384.5C214.876 385.959 214.294 387.358 213.258 388.389C212.223 389.421 210.818 390 209.353 390C207.889 390 206.484 389.421 205.448 388.389C204.413 387.358 203.831 385.959 203.831 384.5C203.831 383.041 204.413 381.642 205.448 380.611C206.484 379.579 207.889 379 209.353 379C210.818 379 212.223 379.579 213.258 380.611C214.294 381.642 214.876 383.041 214.876 384.5V384.5Z" fill="url(#paint0_linear_607_3)"/>
<path d="M207.847 410C213.947 410 218.892 405.075 218.892 399C218.892 392.925 213.947 388 207.847 388C201.747 388 196.802 392.925 196.802 399C196.802 405.075 201.747 410 207.847 410Z" fill="#25233A"/>
<path d="M216.884 399.5C216.884 400.959 216.302 402.358 215.267 403.389C214.231 404.421 212.826 405 211.362 405C209.897 405 208.492 404.421 207.457 403.389C206.421 402.358 205.839 400.959 205.839 399.5C205.839 398.041 206.421 396.642 207.457 395.611C208.492 394.579 209.897 394 211.362 394C212.826 394 214.231 394.579 215.267 395.611C216.302 396.642 216.884 398.041 216.884 399.5Z" fill="#3F3D56"/>
<path d="M258.137 390.874L207.142 380.828C203.554 380.111 201.234 376.698 201.953 373.192C202.688 369.692 206.18 367.428 209.77 368.126L260.765 378.153C264.354 378.87 266.673 382.283 265.954 385.79C265.228 389.297 261.733 391.571 258.137 390.874V390.874Z" fill="#2BD0D0"/>
<path d="M226.925 310H240.982V369C240.982 372.866 237.837 376 233.957 376C232.093 375.999 230.306 375.261 228.989 373.949C227.672 372.636 226.932 370.856 226.932 369V310H226.925Z" fill="#2BD0D0"/>
<path d="M232.133 386.708L207.496 393.733C203.913 394.747 200.152 392.784 199.087 389.345C198.035 385.905 200.078 382.295 203.653 381.271L228.291 374.266C231.869 373.256 235.624 375.214 236.693 378.647C237.736 382.082 235.699 385.681 232.133 386.707V386.708Z" fill="#2BD0D0"/>
<path d="M236.966 386.26L233.828 386.811C232.875 386.976 231.907 387.033 230.941 386.983L232.252 386.755C233.12 386.611 233.965 386.357 234.769 386L236.966 386.26Z" fill="url(#paint1_linear_607_3)"/>
<path d="M262.068 372.738C262.071 374.282 261.555 375.782 260.602 377L239.978 372.65C240.5 371.907 240.874 371.071 241.081 370.188L253.786 366.265C254.605 366.019 255.465 365.944 256.313 366.043C257.162 366.143 257.981 366.415 258.72 366.844C260.226 367.711 261.339 369.168 261.815 370.892C261.98 371.492 262.065 372.114 262.068 372.738V372.738Z" fill="url(#paint2_linear_607_3)"/>
<path opacity="0.31" d="M226.142 371.103C225.995 370.589 225.921 370.057 225.921 369.523V311H231.888V374.07C231.829 374.38 231.848 374.697 231.945 375C231.026 374.682 230.062 374.51 229.089 374.489C228.396 374.449 227.698 374.449 227.004 374.489L227.431 374.389C227.694 374.349 226.487 372.298 226.143 371.103H226.142Z" fill="url(#paint3_linear_607_3)"/>
<path opacity="0.31" d="M263.362 389.8C262.388 390.323 261.293 390.597 260.179 390.596C259.731 390.595 259.284 390.551 258.844 390.466L236.345 386.06L234.471 385.697C233.828 386.176 233.102 386.534 232.329 386.752L231.214 387.069L208.095 393.735C204.567 394.742 200.864 392.792 199.814 389.373C201.82 391.178 204.864 391.346 207.067 389.774C209.89 387.878 221.126 385.031 227.491 383.517C230.5 382.819 232.801 380.467 233.363 377.517C233.379 377.344 233.405 377.171 233.444 377C234.504 378.113 236.453 379.362 239.975 380.423C248.65 383.012 262.735 384.727 262.735 384.727C262.735 384.727 265.277 387.147 263.362 389.8V389.8Z" fill="url(#paint4_linear_607_3)"/>
<path d="M265.08 388C264.542 388.786 263.861 389.464 263.072 390C263.75 389.341 264.419 388.675 265.08 388V388Z" fill="url(#paint5_linear_607_3)"/>
<path d="M227.226 370.559C227.507 371.734 228.096 372.815 228.933 373.689C228.722 373.728 228.506 373.781 228.29 373.84L206.931 380C203.647 379.187 201.483 376.135 201.867 372.854C202.249 369.574 205.061 367.073 208.45 367C208.905 367.001 209.359 367.045 209.805 367.132L227.226 370.559V370.559Z" fill="url(#paint6_linear_607_3)"/>
<path d="M260.06 89.407C260.06 89.407 259.783 68.602 242.915 70.397C226.046 72.19 227.341 65.302 220.135 66.058C212.931 66.815 204.562 73.844 206.965 82.526C209.37 91.208 200.607 93.149 194.851 99.736C189.095 106.323 196.206 111.712 205.902 118.152C215.599 124.592 205.3 122.925 211.048 133.107C216.798 143.288 236.258 130.282 236.258 130.282L260.06 89.407Z" fill="#503164"/>
<path d="M123.166 434.601L134.944 435V341.255C134.944 341.255 135.536 317.014 158.492 314.582C181.447 312.151 389.63 282.116 389.63 282.116C389.63 282.116 397.882 281.246 402.634 297.017C407.387 312.788 412.012 374.804 412.012 374.804L475.913 383.381C475.913 383.381 477.6 273.831 454.524 267.786C431.449 261.741 129.678 292.546 129.678 292.546C129.678 292.546 107.296 408.898 123.166 434.601V434.601Z" fill="#2BD0D0"/>
<path opacity="0.197" d="M123.166 434.601L134.944 435V341.255C134.944 341.255 135.536 317.014 158.492 314.582C181.447 312.151 389.63 282.116 389.63 282.116C389.63 282.116 397.882 281.246 402.634 297.017C407.387 312.788 412.012 374.804 412.012 374.804L475.913 383.381C475.913 383.381 477.6 273.831 454.524 267.786C431.449 261.741 129.678 292.546 129.678 292.546C129.678 292.546 107.296 408.898 123.166 434.601V434.601Z" fill="url(#paint7_linear_607_3)"/>
<path d="M62.2538 303.784C62.2538 303.784 68.0213 272.028 108.587 263.705L394.937 231.062C394.937 231.062 423.047 229.902 435.908 237.649C448.768 245.395 467.123 251.817 474.649 286.872C482.174 321.928 483.973 381.814 483.973 381.814L476.854 382.914C476.854 382.914 466.463 274.474 455.455 267.608C444.447 260.743 146.794 302.863 146.794 302.863C146.794 302.863 126.149 306.951 124.351 337.395C122.554 367.838 124.351 434 124.351 434L62.2538 409.057V303.784Z" fill="#2BD0D0"/>
<path opacity="0.19" d="M356.88 243.844C342.057 241.944 327.114 240.568 312.178 241.124C300.953 241.557 289.801 243.09 278.67 244.617L180.495 258.12C178.828 258.35 176.93 258.723 176.097 260.164C174.498 262.916 178.256 265.628 181.3 266.676C213.943 277.932 248.818 289.332 282.42 281.306C297.783 277.637 312.052 270.018 327.634 267.371C343.216 264.724 359.211 267.161 374.76 264.665C389.376 262.32 403.293 255.656 418.108 255.591C422.652 255.591 427.329 256.168 431.638 254.752C435.949 253.337 439.76 249.013 438.567 244.702C424.657 244.224 409.042 241.695 395.399 244.44C381.895 247.152 370.403 243.844 356.88 243.844V243.844Z" fill="url(#paint8_linear_607_3)"/>
<path d="M268.093 259.38L268.665 261.494C268.665 261.494 285.615 271.667 285.509 271.995C285.402 272.323 355.819 255.755 355.819 255.755L357.457 251L268.093 259.38Z" fill="#2BD0D0"/>
<path d="M268.093 259.38L268.665 261.494C268.665 261.494 285.615 271.667 285.509 271.995C285.402 272.323 355.819 255.755 355.819 255.755L357.457 251L268.093 259.38Z" fill="url(#paint9_linear_607_3)"/>
<path d="M269.097 259.364L331.458 246L357.457 251.054L286.61 268L269.097 259.364Z" fill="#2BD0D0"/>
<path d="M269.097 259.364L331.458 246L357.457 251.054L286.61 268L269.097 259.364Z" fill="url(#paint10_linear_607_3)"/>
<path d="M248.846 270.484L263.362 270.996C263.362 270.996 267.049 271.224 268.001 268.279C268.955 265.334 262.087 259.119 261.352 259.002C260.616 258.884 241.511 264.222 244.266 269.558L248.846 270.484Z" fill="#2BD0D0"/>
<path d="M248.846 270.484L263.362 270.996C263.362 270.996 267.049 271.224 268.001 268.279C268.955 265.334 262.087 259.119 261.352 259.002C260.616 258.884 241.511 264.222 244.266 269.558L248.846 270.484Z" fill="url(#paint11_linear_607_3)"/>
<path d="M79.3233 416.056L72.2364 437.733C51.6796 445.084 34.2014 437.733 34.2014 437.733L29.1187 415C29.1187 415 54.7582 423.56 79.3233 416.056Z" fill="#2BD0D0"/>
<path d="M79.3233 416.056L72.2364 437.733C51.6796 445.084 34.2014 437.733 34.2014 437.733L29.1187 415C29.1187 415 54.7582 423.56 79.3233 416.056Z" fill="url(#paint12_linear_607_3)"/>
<path d="M87.356 396L85.0627 412.943L79.253 415.951C54.5041 423.371 28.6316 414.913 28.6316 414.913L24.1704 411.63L22.09 396H87.356Z" fill="#2BD0D0"/>
<path d="M87.356 396L85.0627 412.943L79.253 415.951C54.5041 423.371 28.6316 414.913 28.6316 414.913L24.1704 411.63L22.09 396H87.356Z" fill="url(#paint13_linear_607_3)"/>
<path d="M54.723 401C72.7457 401 87.356 398.314 87.356 395C87.356 391.686 72.7457 389 54.723 389C36.7003 389 22.09 391.686 22.09 395C22.09 398.314 36.7003 401 54.723 401Z" fill="#2BD0D0"/>
<path d="M54.723 401C72.7457 401 87.356 398.314 87.356 395C87.356 391.686 72.7457 389 54.723 389C36.7003 389 22.09 391.686 22.09 395C22.09 398.314 36.7003 401 54.723 401Z" fill="url(#paint14_linear_607_3)"/>
<path d="M39.8032 265.03C36.6082 263.515 33.1732 262.372 30.4089 260.16C24.8392 255.66 23.4274 247.912 21.6833 240.962C19.9402 234.011 16.5655 226.369 9.69045 224.375C7.11797 223.638 4.10067 223.93 2.1447 225.765C0.0832933 227.698 -0.335413 230.875 0.228887 233.679C0.792183 236.483 2.16478 238.995 3.2261 241.653C5.7036 247.831 6.45718 254.561 5.40699 261.13C4.53845 266.519 2.46299 271.981 3.79542 277.264C6.05664 286.228 17.3206 291.484 17.6318 300.721C17.8447 306.954 12.7268 312.722 13.8866 318.856C14.742 323.394 18.912 326.936 19.138 331.548C19.389 336.778 14.4569 341.203 14.6959 346.433C14.9338 351.663 20.1451 355.158 23.5469 359.272C26.4008 362.733 28.0956 366.997 28.3937 371.465C28.5724 374.256 28.214 377.147 29.1227 379.792C29.7854 381.725 31.1108 383.367 32.139 385.108C33.2736 386.988 34.1281 389.022 35.4936 390.763C37.2025 392.929 39.5277 394.532 42.1653 395.362C44.803 396.191 47.6306 396.21 50.2789 395.414C51.3332 388.464 50.4114 381.374 50.7036 374.349C51.28 360.74 56.4179 347.025 53.1295 333.814C51.9236 328.97 49.6031 324.371 49.1915 319.401C48.827 314.961 50.0068 310.563 50.8291 306.184C52.5261 297.14 52.4999 287.79 51.8031 278.646C51.2539 271.39 46.1621 268.047 39.8042 265.03H39.8032Z" fill="#2BD0D0"/>
<path d="M59.9966 300.767C59.9433 306.829 61.332 313.097 59.3821 318.852C57.906 323.214 54.6608 326.786 52.985 331.075C49.1192 340.974 54.3204 352.075 53.2591 362.645C52.8173 366.999 51.3152 371.182 50.3673 375.458C49.1897 380.871 48.9012 386.438 49.5128 391.943C49.4507 392.946 49.7542 393.937 50.3676 394.735C50.981 395.533 51.8631 396.083 52.8514 396.285C56.1235 397.526 59.5126 398.436 62.9677 399C61.7996 392.591 63.0302 385.977 66.4268 380.41C71.7224 371.78 82.0123 365.964 83.9281 356.051C85.2234 349.339 82.2061 342.527 82.42 335.696C82.5741 331.149 84.1471 326.763 86.9203 323.148C89.4105 319.921 92.7832 317.425 95.1007 314.078C100.669 306.012 98.9333 295.23 97.2775 285.584C95.6208 275.937 94.6599 264.836 101.204 257.527C103.274 255.217 105.971 253.483 107.848 251.014C112.028 245.51 110.972 237.031 106.111 232.112C101.251 227.192 93.4238 225.832 86.8139 227.996C84.0262 228.812 81.565 230.476 79.7752 232.756C76.4366 237.47 77.772 243.91 79.1878 249.513C80.4228 254.38 81.4179 259.996 79.729 264.903C78.4669 268.554 75.2678 270.533 72.5497 273.075C68.6989 276.616 65.6031 280.893 63.4464 285.65C61.2898 290.408 60.1166 295.549 59.9966 300.767V300.767Z" fill="#2BD0D0"/>
<path d="M53.2793 354.522C52.3375 361.115 50.9779 367.761 50.6988 374.373V375.038C50.6844 375.202 50.6468 375.363 50.5873 375.517C49.4108 380.935 49.1172 386.507 49.7178 392.018C49.7539 392.911 49.9798 393.786 50.3805 394.584C50.3483 394.863 50.3082 395.135 50.269 395.414C47.6199 396.21 44.7914 396.192 42.1529 395.362C39.5144 394.532 37.1884 392.929 35.4787 390.762C34.1533 389.021 33.2567 386.987 32.1231 385.107C31.0617 383.359 29.7685 381.717 29.1058 379.79C28.1971 377.131 28.5545 374.254 28.3758 371.463C28.078 366.993 26.3828 362.729 23.528 359.267C20.1251 355.18 14.9059 351.751 14.6739 346.434C14.442 341.117 19.3691 336.778 19.117 331.547C18.8921 326.935 14.7201 323.393 13.8656 318.854C12.7039 312.719 17.8439 306.951 17.6119 300.717C17.3006 291.479 6.03271 286.222 3.77048 277.257C2.44508 271.973 4.51351 266.51 5.38205 261.121C6.43747 254.559 5.69297 247.836 3.22727 241.661C2.16594 239.003 0.793348 236.498 0.229048 233.686C-0.334248 230.876 0.0834548 227.705 2.14586 225.764C4.13597 223.93 7.12014 223.638 9.69363 224.375C16.5777 226.369 19.9394 234.039 21.6905 240.99C23.4417 247.942 24.8474 255.684 30.4181 260.19C33.1713 262.417 36.6194 263.546 39.8164 265.062C46.1824 268.079 51.2761 271.422 51.8203 278.612C52.483 287.757 52.5433 297.108 50.8464 306.153C50.023 310.533 48.8563 314.933 49.2077 319.372C49.5591 323.812 51.489 328.012 52.7491 332.318C52.8887 332.803 53.0273 333.295 53.1468 333.787C54.8186 340.626 54.2814 347.544 53.2793 354.522V354.522Z" fill="#30C59B"/>
<path d="M49.9215 394C49.618 393.204 49.4478 392.363 49.4175 391.512C48.9857 386.152 49.2006 380.732 50.0571 375.465C50.0802 375.31 50.1093 375.155 50.1374 375C49.9657 381.346 50.5129 387.744 49.9215 394V394Z" fill="url(#paint15_linear_607_3)"/>
<path d="M107.833 251.014C105.954 253.484 103.252 255.216 101.178 257.527C94.6247 264.83 95.5876 275.937 97.2464 285.584C98.9041 295.23 100.643 306.012 95.0655 314.079C92.746 317.399 89.3682 319.921 86.8731 323.148C84.0958 326.762 82.5198 331.148 82.3647 335.696C82.1518 342.527 85.1742 349.339 83.8769 356.051C81.958 365.964 71.652 371.793 66.3484 380.411C62.9599 385.981 61.7368 392.593 62.9104 399C59.4589 398.436 56.0734 397.526 52.8052 396.285C51.9121 396.022 51.1018 395.534 50.4516 394.87C50.3593 394.762 50.2763 394.647 50.2036 394.525C49.7892 393.735 49.5499 392.865 49.5017 391.975C48.9003 386.469 49.2005 380.902 50.3914 375.491C50.4245 375.331 50.4647 375.172 50.5048 375.013C51.4547 370.903 52.8594 366.873 53.2872 362.677C53.5147 359.957 53.4608 357.22 53.1265 354.511C54.1366 347.54 54.6778 340.629 52.9729 333.843C52.8524 333.353 52.7118 332.861 52.5713 332.376C52.6988 331.951 52.8454 331.526 53.0131 331.108C54.6919 326.819 57.9421 323.248 59.4192 318.885C61.3661 313.129 59.9815 306.862 60.0347 300.8C60.122 290.33 64.8774 280.22 72.5145 273.075C75.2356 270.533 78.4397 268.555 79.7038 264.903C81.3957 259.996 80.3726 254.38 79.1616 249.513C77.7378 243.91 76.3863 237.47 79.751 232.756C81.4229 230.419 84.0586 228.899 86.7998 227.996C93.3937 225.831 101.266 227.192 106.128 232.112C110.989 237.032 112.02 245.542 107.833 251.014V251.014Z" fill="#30C59B"/>
<path d="M226.496 146.146C226.496 146.146 198.566 150.446 185.646 181.123C172.726 211.8 179.445 249.806 179.671 253.15C179.896 256.494 219.26 271 230.513 271C241.767 271 244.11 259.771 244.11 259.771L224.226 251.338L284.642 244.389H295.491L289.515 254.421C289.515 254.421 301.306 255.651 309.187 255.932C317.068 256.213 322.419 240.692 323.302 232.973C324.186 225.256 288.493 157.515 283.161 153.503C277.83 149.49 263.364 139.686 226.496 146.146V146.146Z" fill="#2BD0D0"/>
<path d="M259.45 88.7761C259.45 88.7761 264.502 91.6061 264.048 100.761C263.593 109.916 260.745 123.693 257.87 127.261C254.994 130.831 244.937 132.229 244.937 132.229C244.937 132.229 250.424 145.206 254.506 148.555C258.589 151.904 250.404 164.242 242.442 160.194C234.482 156.145 225.252 145.978 225.252 145.978C225.252 145.978 231.891 133.733 229.646 127.288C227.402 120.843 218.83 98.224 225.252 92.046C231.674 85.866 245.521 77.0111 259.45 88.7761V88.7761Z" fill="url(#paint16_linear_607_3)"/>
<path opacity="0.25" d="M215.211 190L210.86 244.055L224.152 251L234.958 249.122L221.475 232.618L215.211 190ZM285.163 187C285.163 187 303.145 229.077 295.173 244L289.032 242.84L285.163 187Z" fill="white"/>
<path d="M236.486 258.045C236.486 258.045 229.692 263.82 232.725 268.312C235.757 272.803 239.377 272.675 242.395 270.667C245.413 268.658 251.343 263.891 258.406 266.079C265.47 268.267 267.186 269.659 267.186 269.659C267.186 269.659 270.906 267.343 269.941 265.02C268.976 262.697 261.587 255.17 259.447 254.195C257.306 253.22 248.419 256.216 248.419 256.216C248.419 256.216 241.889 254.458 236.486 258.046V258.045Z" fill="url(#paint17_linear_607_3)"/>
<path d="M296.399 245.598C296.399 245.598 289.988 246.357 288.368 250.555C286.749 254.753 286.166 255.265 286.166 255.265C286.166 255.265 289.787 255.955 291.293 254.001C292.799 252.047 294.365 252.868 294.365 252.868L293.916 255.375C293.916 255.375 303.754 256.852 308.198 255.265C312.641 253.676 314.549 251.812 314.549 251.812L316.289 247.572C316.289 247.572 312.092 244.542 308.927 244.072C305.762 243.602 296.399 245.598 296.399 245.598V245.598Z" fill="url(#paint18_linear_607_3)"/>
<path d="M330.239 290C330.239 290 352.263 306.687 350.305 329.259C348.348 351.831 345.472 385.346 345.472 385.346C345.472 385.346 336.59 389.068 330.705 385.346C324.819 381.624 321.255 330.696 318.339 325.833C315.424 320.969 297.881 299.043 279.138 297.154L330.239 290Z" fill="#25233A"/>
<path d="M219.896 306.058C219.896 306.058 230.383 315.953 249.077 319.06C267.773 322.167 276.486 324.76 282.199 340.665C287.913 356.57 293.393 390.802 295.187 394.628C296.981 398.454 304.608 396.502 304.608 396.502C304.608 396.502 308.921 391.607 308.921 364.388C308.921 326.442 311.587 318.664 301.98 309.132C292.373 299.599 283.633 297 283.633 297L219.896 306.058Z" fill="#3F3D56"/>
<path d="M295.203 396L297.031 410.197H300.453C300.453 410.197 322.491 411.384 323.181 410.872C323.872 410.359 322.12 399.629 313.771 399.932C305.421 400.236 304.874 397.909 304.874 397.909L295.203 396ZM332.355 386.156L335.887 400L374.482 394.788C374.482 394.788 375.84 385.695 363.614 386.597C360.387 386.831 357.983 389.062 354.104 389.082C350.226 389.102 346.511 387.539 344.555 385L332.355 386.156Z" fill="#25233A"/>
<path d="M463.694 212.337L320.869 219.991C317.415 220.172 314.467 217.521 314.281 214.065V112.473C314.284 108.372 317.561 105.025 321.659 104.938L463.9 102.001C464.804 101.983 465.703 102.143 466.545 102.472C467.387 102.801 468.155 103.292 468.806 103.918C470.124 105.185 470.884 106.921 470.92 108.745V204.716C470.915 208.772 467.743 212.118 463.694 212.337V212.337Z" fill="#2BD0D0"/>
<path d="M471.727 212.337L328.895 219.992C325.44 220.169 322.496 217.514 322.314 214.058V112.473C322.31 108.371 325.587 105.021 329.686 104.938L471.946 102.001C475.738 101.931 478.872 104.944 478.952 108.739V204.716C478.947 208.773 475.775 212.119 471.727 212.337V212.337Z" fill="#2BD0D0"/>
<path d="M471.727 212.337L328.895 219.992C325.44 220.169 322.496 217.514 322.314 214.058V112.473C322.31 108.371 325.587 105.021 329.686 104.938L471.946 102.001C475.738 101.931 478.872 104.944 478.952 108.739V204.716C478.947 208.773 475.775 212.119 471.727 212.337V212.337Z" fill="url(#paint19_linear_607_3)"/>
<path d="M429.524 251.138L393.08 255C393.08 255 381.982 252.77 382.582 251.138C383.184 249.505 394.788 247.933 394.788 247.933V182.129C394.688 181.983 393.16 180.045 388.975 178.81C388.165 178.571 387.341 178.38 386.506 178.24C385.79 178.136 385.092 177.925 384.438 177.616C381.949 176.336 384.699 174.106 388.562 174.006C389.167 173.985 389.773 174.02 390.371 174.112H418.398C418.398 174.112 429.01 177.085 429.524 191.923C430.037 206.762 429.524 251.138 429.524 251.138V251.138Z" fill="#3A3054"/>
<path d="M399.629 251.277L392.924 255C392.924 255 381.991 252.77 382.582 251.137C383.175 249.505 394.627 247.932 394.627 247.932V182.123C394.488 181.971 392.812 180.225 388.9 178.805C387.445 178.288 385.95 177.888 384.43 177.61C381.978 176.33 384.686 174.1 388.493 174C391.734 174.445 398.117 178.028 398.531 180.073C398.945 182.117 399.629 251.277 399.629 251.277V251.277Z" fill="#51466B"/>
<path d="M264.076 389C263.192 390.001 262.781 390.37 263.303 389.547C263.574 389.388 263.832 389.205 264.076 389Z" fill="url(#paint20_linear_607_3)"/>
<defs>
<linearGradient id="paint0_linear_607_3" x1="203.831" y1="384.5" x2="214.876" y2="384.5" gradientUnits="userSpaceOnUse">
<stop stop-color="#183866"/>
<stop offset="1" stop-color="#1A7FC1"/>
</linearGradient>
<linearGradient id="paint1_linear_607_3" x1="230.933" y1="386.501" x2="236.966" y2="386.501" gradientUnits="userSpaceOnUse">
<stop/>
<stop offset="0.99" stop-opacity="0"/>
</linearGradient>
<linearGradient id="paint2_linear_607_3" x1="278.873" y1="303.741" x2="304.512" y2="315.781" gradientUnits="userSpaceOnUse">
<stop/>
<stop offset="0.99" stop-opacity="0"/>
</linearGradient>
<linearGradient id="paint3_linear_607_3" x1="229.471" y1="145.881" x2="225.947" y2="144.918" gradientUnits="userSpaceOnUse">
<stop/>
<stop offset="0.99" stop-opacity="0"/>
</linearGradient>
<linearGradient id="paint4_linear_607_3" x1="300.127" y1="366.244" x2="213.616" y2="337.868" gradientUnits="userSpaceOnUse">
<stop/>
<stop offset="0.99" stop-opacity="0"/>
</linearGradient>
<linearGradient id="paint5_linear_607_3" x1="310.487" y1="56.3019" x2="306.506" y2="55.0397" gradientUnits="userSpaceOnUse">
<stop/>
<stop offset="0.99" stop-opacity="0"/>
</linearGradient>
<linearGradient id="paint6_linear_607_3" x1="267.265" y1="311.613" x2="239.421" y2="319.046" gradientUnits="userSpaceOnUse">
<stop/>
<stop offset="0.99" stop-opacity="0"/>
</linearGradient>
<linearGradient id="paint7_linear_607_3" x1="500.495" y1="304.803" x2="-9.99505" y2="280.128" gradientUnits="userSpaceOnUse">
<stop/>
<stop offset="1" stop-opacity="0"/>
</linearGradient>
<linearGradient id="paint8_linear_607_3" x1="212.99" y1="223.225" x2="476.06" y2="223.225" gradientUnits="userSpaceOnUse">
<stop stop-color="#183866"/>
<stop offset="1" stop-color="#1A7FC1"/>
</linearGradient>
<linearGradient id="paint9_linear_607_3" x1="304.184" y1="259.298" x2="307.331" y2="271.579" gradientUnits="userSpaceOnUse">
<stop/>
<stop offset="0.99" stop-opacity="0"/>
</linearGradient>
<linearGradient id="paint10_linear_607_3" x1="258.025" y1="255.883" x2="343.643" y2="283.391" gradientUnits="userSpaceOnUse">
<stop/>
<stop offset="0.99" stop-opacity="0"/>
</linearGradient>
<linearGradient id="paint11_linear_607_3" x1="256.935" y1="264.073" x2="256.309" y2="268.902" gradientUnits="userSpaceOnUse">
<stop/>
<stop offset="0.99" stop-opacity="0"/>
</linearGradient>
<linearGradient id="paint12_linear_607_3" x1="124.972" y1="328.356" x2="80.4536" y2="326.63" gradientUnits="userSpaceOnUse">
<stop/>
<stop offset="0.99" stop-opacity="0"/>
</linearGradient>
<linearGradient id="paint13_linear_607_3" x1="132.114" y1="366.963" x2="94.9195" y2="365.686" gradientUnits="userSpaceOnUse">
<stop/>
<stop offset="0.99" stop-opacity="0"/>
</linearGradient>
<linearGradient id="paint14_linear_607_3" x1="59.2844" y1="394.234" x2="57.9378" y2="400.918" gradientUnits="userSpaceOnUse">
<stop/>
<stop offset="0.99" stop-opacity="0"/>
</linearGradient>
<linearGradient id="paint15_linear_607_3" x1="49.784" y1="95.0215" x2="46.6879" y2="114.162" gradientUnits="userSpaceOnUse">
<stop/>
<stop offset="0.99" stop-opacity="0"/>
</linearGradient>
<linearGradient id="paint16_linear_607_3" x1="222.892" y1="121.995" x2="264.075" y2="121.995" gradientUnits="userSpaceOnUse">
<stop stop-color="#ECC4D7"/>
<stop offset="0.42" stop-color="#EFD4D1"/>
<stop offset="1" stop-color="#F2EAC9"/>
</linearGradient>
<linearGradient id="paint17_linear_607_3" x1="269.732" y1="224.608" x2="307.887" y2="224.608" gradientUnits="userSpaceOnUse">
<stop stop-color="#ECC4D7"/>
<stop offset="0.42" stop-color="#EFD4D1"/>
<stop offset="1" stop-color="#F2EAC9"/>
</linearGradient>
<linearGradient id="paint18_linear_607_3" x1="323.611" y1="233.853" x2="353.734" y2="233.853" gradientUnits="userSpaceOnUse">
<stop stop-color="#ECC4D7"/>
<stop offset="0.42" stop-color="#EFD4D1"/>
<stop offset="1" stop-color="#F2EAC9"/>
</linearGradient>
<linearGradient id="paint19_linear_607_3" x1="524.205" y1="220.425" x2="381.902" y2="315.451" gradientUnits="userSpaceOnUse">
<stop stop-color="#362958" stop-opacity="0.501"/>
<stop offset="1" stop-color="#34313D" stop-opacity="0"/>
</linearGradient>
<linearGradient id="paint20_linear_607_3" x1="303.127" y1="46.8944" x2="301.958" y2="46.4602" gradientUnits="userSpaceOnUse">
<stop/>
<stop offset="0.99" stop-opacity="0"/>
</linearGradient>
</defs>
</svg>
